{
  "asset": {
    "version": "2.0",
    "generator": "THREE.GLTFExporter"
  },
  "scenes": [
    {
      "name": "Scene",
      "nodes": [
        0,
        4
      ]
    }
  ],
  "scene": 0,
  "nodes": [
    {
      "matrix": [
        1,
        0,
        0,
        0,
        0,
        1,
        0,
        0,
        0,
        0,
        1,
        0,
        0,
        8.27879956221894,
        0,
        1
      ],
      "name": "AmbientLight"
    },
    {
      "matrix": [
        0.010000000707805157,
        0,
        0,
        0,
        0,
        0.009999999528682479,
        0.0000048561770180886865,
        0,
        0,
        -0.0000048561770180886865,
        0.009999999528682479,
        0,
        0,
        0.5538692474365234,
        -0.11443444341421127,
        1
      ],
      "name": "Body1",
      "extras": {
        "name": "Body1"
      },
      "mesh": 0
    },
    {
      "matrix": [
        0.010000000707805157,
        0,
        0,
        0,
        0,
        0.009999999528682479,
        0.0000048561770180886865,
        0,
        0,
        -0.0000048561770180886865,
        0.009999999528682479,
        0,
        0,
        0,
        0,
        1
      ],
      "name": "Body2",
      "extras": {
        "name": "Body2"
      },
      "mesh": 1
    },
    {
      "matrix": [
        0.0010000000474974513,
        0,
        0,
        0,
        0,
        0.0009999999295851863,
        4.856176905022012e-7,
        0,
        0,
        -4.856176905022012e-7,
        0.0009999999295851863,
        0,
        0,
        0,
        0,
        1
      ],
      "name": "Level3_v3",
      "extras": {
        "name": "Level3 v3"
      }
    },
    {
      "matrix": [
        8,
        0,
        0,
        0,
        0,
        10,
        0,
        0,
        0,
        0,
        8,
        0,
        0,
        0,
        6.211426448424681,
        1
      ],
      "name": "lvl3.glb",
      "children": [
        1,
        2,
        3
      ]
    }
  ],
  "bufferViews": [
    {
      "buffer": 0,
      "byteOffset": 0,
      "byteLength": 3480,
      "target": 34962,
      "byteStride": 12
    },
    {
      "buffer": 0,
      "byteOffset": 3480,
      "byteLength": 3480,
      "target": 34962,
      "byteStride": 12
    },
    {
      "buffer": 0,
      "byteOffset": 6960,
      "byteLength": 2320,
      "target": 34962,
      "byteStride": 8
    },
    {
      "buffer": 0,
      "byteOffset": 9280,
      "byteLength": 1464,
      "target": 34963
    },
    {
      "buffer": 0,
      "byteOffset": 10744,
      "byteLength": 360,
      "target": 34962,
      "byteStride": 12
    },
    {
      "buffer": 0,
      "byteOffset": 11104,
      "byteLength": 360,
      "target": 34962,
      "byteStride": 12
    },
    {
      "buffer": 0,
      "byteOffset": 11464,
      "byteLength": 240,
      "target": 34962,
      "byteStride": 8
    },
    {
      "buffer": 0,
      "byteOffset": 11704,
      "byteLength": 144,
      "target": 34963
    }
  ],
  "buffers": [
    {
      "byteLength": 11848,
      "uri": "data:application/octet-stream;base64,"
    }
  ],
  "accessors": [
    {
      "bufferView": 0,
      "componentType": 5126,
      "count": 290,
      "max": [
        125,
        54.61864471435547,
        186.4703369140625
      ],
      "min": [
        -125,
        -55.38135528564453,
        -318.5296630859375
      ],
      "type": "VEC3"
    },
    {
      "bufferView": 1,
      "componentType": 5126,
      "count": 290,
      "max": [
        1,
        1,
        1
      ],
      "min": [
        -1,
        -1,
        -1
      ],
      "type": "VEC3"
    },
    {
      "bufferView": 2,
      "componentType": 5126,
      "count": 290,
      "max": [
        370,
        126
      ],
      "min": [
        -369.5,
        -369
      ],
      "type": "VEC2"
    },
    {
      "bufferView": 3,
      "componentType": 5123,
      "count": 732,
      "max": [
        289
      ],
      "min": [
        0
      ],
      "type": "SCALAR"
    },
    {
      "bufferView": 4,
      "componentType": 5126,
      "count": 30,
      "max": [
        25,
        0.5,
        170
      ],
      "min": [
        -25,
        0,
        130
      ],
      "type": "VEC3"
    },
    {
      "bufferView": 5,
      "componentType": 5126,
      "count": 30,
      "max": [
        1,
        1,
        1
      ],
      "min": [
        -1,
        -1,
        -1
      ],
      "type": "VEC3"
    },
    {
      "bufferView": 6,
      "componentType": 5126,
      "count": 30,
      "max": [
        50,
        21
      ],
      "min": [
        -25,
        -19
      ],
      "type": "VEC2"
    },
    {
      "bufferView": 7,
      "componentType": 5123,
      "count": 72,
      "max": [
        29
      ],
      "min": [
        0
      ],
      "type": "SCALAR"
    }
  ],
  "materials": [
    {
      "pbrMetallicRoughness": {
        "baseColorFactor": [
          0.6274510025978088,
          0.6274510025978088,
          0.6274510025978088,
          1
        ],
        "metallicFactor": 1,
        "roughnessFactor": 0.5527864098548889
      },
      "doubleSided": true,
      "name": "Steel - Satin.001",
      "extensions": {
        "KHR_materials_ior": {
          "ior": 1.4500000476837158
        },
        "KHR_materials_specular": {
          "specularFactor": 1,
          "specularColorFactor": [
            2.371357614441398,
            2.371357614441398,
            2.371357614441398
          ]
        }
      }
    }
  ],
  "meshes": [
    {
      "primitives": [
        {
          "mode": 4,
          "attributes": {
            "POSITION": 0,
            "NORMAL": 1,
            "TEXCOORD_0": 2
          },
          "indices": 3,
          "material": 0
        }
      ]
    },
    {
      "primitives": [
        {
          "mode": 4,
          "attributes": {
            "POSITION": 4,
            "NORMAL": 5,
            "TEXCOORD_0": 6
          },
          "indices": 7,
          "material": 0
        }
      ]
    }
  ],
  "extensionsUsed": [
    "KHR_materials_ior",
    "KHR_materials_specular"
  ]
}