{
  "asset": {
    "version": "2.0",
    "generator": "THREE.GLTFExporter"
  },
  "scenes": [
    {
      "name": "Scene",
      "nodes": [
        0,
        3
      ]
    }
  ],
  "scene": 0,
  "nodes": [
    {
      "matrix": [
        1,
        0,
        0,
        0,
        0,
        1,
        0,
        0,
        0,
        0,
        1,
        0,
        0,
        8.27879956221894,
        0,
        1
      ],
      "name": "AmbientLight"
    },
    {
      "matrix": [
        0.010000000707805157,
        0,
        0,
        0,
        0,
        0.009999963592504522,
        -0.00002724529436849265,
        0,
        0,
        0.00002724529436849265,
        0.009999963592504522,
        0,
        1.2504714727401733,
        0.4180273413658142,
        -1.3909657001495361,
        1
      ],
      "name": "Body5",
      "extras": {
        "name": "Body5"
      },
      "mesh": 0
    },
    {
      "matrix": [
        0.0010000000474974513,
        0,
        0,
        0,
        0,
        -1.3435886286675388e-10,
        0.001000000181856314,
        0,
        0,
        -0.001000000181856314,
        -1.3435886286675388e-10,
        0,
        0,
        0,
        0,
        1
      ],
      "name": "Level4_v3",
      "extras": {
        "name": "Level4 v3"
      }
    },
    {
      "matrix": [
        8,
        0,
        0,
        0,
        0,
        10,
        0,
        0,
        0,
        0,
        8,
        0,
        0,
        0,
        0,
        1
      ],
      "name": "lvl4.glb",
      "children": [
        1,
        2
      ]
    }
  ],
  "bufferViews": [
    {
      "buffer": 0,
      "byteOffset": 0,
      "byteLength": 2472,
      "target": 34962,
      "byteStride": 12
    },
    {
      "buffer": 0,
      "byteOffset": 2472,
      "byteLength": 2472,
      "target": 34962,
      "byteStride": 12
    },
    {
      "buffer": 0,
      "byteOffset": 4944,
      "byteLength": 1648,
      "target": 34962,
      "byteStride": 8
    },
    {
      "buffer": 0,
      "byteOffset": 6592,
      "byteLength": 1008,
      "target": 34963
    }
  ],
  "buffers": [
    {
      "byteLength": 7600,
      "uri": "data:application/octet-stream;base64,"
    }
  ],
  "accessors": [
    {
      "bufferView": 0,
      "componentType": 5126,
      "count": 206,
      "max": [
        174.95285034179688,
        57.818450927734375,
        338.9821472167969
      ],
      "min": [
        -325.0471496582031,
        -42.181549072265625,
        -131.01785278320312
      ],
      "type": "VEC3"
    },
    {
      "bufferView": 1,
      "componentType": 5126,
      "count": 206,
      "max": [
        1,
        1,
        1
      ],
      "min": [
        -1,
        -1,
        -1
      ],
      "type": "VEC3"
    },
    {
      "bufferView": 2,
      "componentType": 5126,
      "count": 206,
      "max": [
        500,
        226
      ],
      "min": [
        -499.5,
        -244
      ],
      "type": "VEC2"
    },
    {
      "bufferView": 3,
      "componentType": 5123,
      "count": 504,
      "max": [
        205
      ],
      "min": [
        0
      ],
      "type": "SCALAR"
    }
  ],
  "materials": [
    {
      "pbrMetallicRoughness": {
        "baseColorFactor": [
          0.6274510025978088,
          0.6274510025978088,
          0.6274510025978088,
          1
        ],
        "metallicFactor": 1,
        "roughnessFactor": 0.5527864098548889
      },
      "doubleSided": true,
      "name": "Steel - Satin.002",
      "extensions": {
        "KHR_materials_ior": {
          "ior": 1.4500000476837158
        },
        "KHR_materials_specular": {
          "specularFactor": 1,
          "specularColorFactor": [
            2.371357614441398,
            2.371357614441398,
            2.371357614441398
          ]
        }
      }
    }
  ],
  "meshes": [
    {
      "primitives": [
        {
          "mode": 4,
          "attributes": {
            "POSITION": 0,
            "NORMAL": 1,
            "TEXCOORD_0": 2
          },
          "indices": 3,
          "material": 0
        }
      ]
    }
  ],
  "extensionsUsed": [
    "KHR_materials_ior",
    "KHR_materials_specular"
  ]
}