{
  "asset": {
    "version": "2.0",
    "generator": "THREE.GLTFExporter"
  },
  "scenes": [
    {
      "name": "Scene",
      "nodes": [
        0,
        3
      ]
    }
  ],
  "scene": 0,
  "nodes": [
    {
      "matrix": [
        1,
        0,
        0,
        0,
        0,
        1,
        0,
        0,
        0,
        0,
        1,
        0,
        0,
        8.27879956221894,
        0,
        1
      ],
      "name": "AmbientLight"
    },
    {
      "matrix": [
        0.010000000707805157,
        0,
        0,
        0,
        0,
        0.009998986081837986,
        -0.00014244820572360356,
        0,
        0,
        0.00014244820572360356,
        0.009998986081837986,
        0,
        -0.440561980009079,
        0.4468136429786682,
        0.5652767419815063,
        1
      ],
      "name": "Body1",
      "extras": {
        "name": "Body1"
      },
      "mesh": 0
    },
    {
      "matrix": [
        0.0010000000474974513,
        0,
        0,
        0,
        0,
        -1.3435886286675388e-10,
        0.001000000181856314,
        0,
        0,
        -0.001000000181856314,
        -1.3435886286675388e-10,
        0,
        0,
        0,
        0,
        1
      ],
      "name": "Level5_v5",
      "extras": {
        "name": "Level5 v5"
      }
    },
    {
      "matrix": [
        14.04,
        0,
        0,
        0,
        0,
        10,
        0,
        0,
        0,
        0,
        13,
        0,
        0,
        1.993720414114346,
        -8.566717182635786,
        1
      ],
      "name": "lvl5v2.glb",
      "children": [
        1,
        2
      ]
    }
  ],
  "bufferViews": [
    {
      "buffer": 0,
      "byteOffset": 0,
      "byteLength": 3048,
      "target": 34962,
      "byteStride": 12
    },
    {
      "buffer": 0,
      "byteOffset": 3048,
      "byteLength": 3048,
      "target": 34962,
      "byteStride": 12
    },
    {
      "buffer": 0,
      "byteOffset": 6096,
      "byteLength": 2032,
      "target": 34962,
      "byteStride": 8
    },
    {
      "buffer": 0,
      "byteOffset": 8128,
      "byteLength": 1320,
      "target": 34963
    }
  ],
  "buffers": [
    {
      "byteLength": 9448,
      "uri": "data:application/octet-stream;base64,"
    }
  ],
  "accessors": [
    {
      "bufferView": 0,
      "componentType": 5126,
      "count": 254,
      "max": [
        144.0561981201172,
        43.972328186035156,
        84.79083251953125
      ],
      "min": [
        -70.94380187988281,
        -56.527671813964844,
        -54.85542297363281
      ],
      "type": "VEC3"
    },
    {
      "bufferView": 1,
      "componentType": 5126,
      "count": 254,
      "max": [
        1,
        1,
        1
      ],
      "min": [
        -1,
        -1,
        -1
      ],
      "type": "VEC3"
    },
    {
      "bufferView": 2,
      "componentType": 5126,
      "count": 254,
      "max": [
        200,
        70.82312774658203
      ],
      "min": [
        -199.5,
        -99
      ],
      "type": "VEC2"
    },
    {
      "bufferView": 3,
      "componentType": 5123,
      "count": 660,
      "max": [
        253
      ],
      "min": [
        0
      ],
      "type": "SCALAR"
    }
  ],
  "materials": [
    {
      "pbrMetallicRoughness": {
        "baseColorFactor": [
          0.6274510025978088,
          0.6274510025978088,
          0.6274510025978088,
          1
        ],
        "metallicFactor": 1,
        "roughnessFactor": 0.5527864098548889
      },
      "doubleSided": true,
      "name": "Steel - Satin",
      "extensions": {
        "KHR_materials_ior": {
          "ior": 1.4500000476837158
        },
        "KHR_materials_specular": {
          "specularFactor": 1,
          "specularColorFactor": [
            2.371357614441398,
            2.371357614441398,
            2.371357614441398
          ]
        }
      }
    }
  ],
  "meshes": [
    {
      "primitives": [
        {
          "mode": 4,
          "attributes": {
            "POSITION": 0,
            "NORMAL": 1,
            "TEXCOORD_0": 2
          },
          "indices": 3,
          "material": 0
        }
      ]
    }
  ],
  "extensionsUsed": [
    "KHR_materials_ior",
    "KHR_materials_specular"
  ]
}