{
  "asset": {
    "version": "2.0",
    "generator": "THREE.GLTFExporter"
  },
  "scenes": [
    {
      "name": "Scene",
      "nodes": [
        0,
        7
      ]
    }
  ],
  "scene": 0,
  "nodes": [
    {
      "matrix": [
        1,
        0,
        0,
        0,
        0,
        1,
        0,
        0,
        0,
        0,
        1,
        0,
        0,
        8.27879956221894,
        0,
        1
      ],
      "name": "AmbientLight"
    },
    {
      "matrix": [
        0.010000000707805157,
        0,
        0,
        0,
        0,
        0.009999996838750367,
        0.000007665157728862213,
        0,
        0,
        -0.000007665157728862213,
        0.009999996838750367,
        0,
        0.6350377202033997,
        0.46873146295547485,
        1.4316953420639038,
        1
      ],
      "name": "Body1",
      "extras": {
        "name": "Body1"
      },
      "mesh": 0
    },
    {
      "matrix": [
        10,
        0,
        0,
        0,
        0,
        10,
        0,
        0,
        0,
        0,
        10,
        0,
        0,
        0,
        0,
        1
      ],
      "name": "Body2",
      "extras": {
        "name": "Body2"
      },
      "mesh": 1
    },
    {
      "matrix": [
        10,
        0,
        0,
        0,
        0,
        10,
        0,
        0,
        0,
        0,
        10,
        0,
        0,
        0,
        0,
        1
      ],
      "name": "Body3",
      "extras": {
        "name": "Body3"
      },
      "mesh": 2
    },
    {
      "matrix": [
        10,
        0,
        0,
        0,
        0,
        10,
        0,
        0,
        0,
        0,
        10,
        0,
        0,
        0,
        0,
        1
      ],
      "name": "Body4",
      "extras": {
        "name": "Body4"
      },
      "mesh": 3
    },
    {
      "matrix": [
        10,
        0,
        0,
        0,
        0,
        10,
        0,
        0,
        0,
        0,
        10,
        0,
        0,
        0,
        0,
        1
      ],
      "name": "Body5",
      "extras": {
        "name": "Body5"
      },
      "mesh": 4
    },
    {
      "matrix": [
        0.0010000000474974513,
        0,
        0,
        0,
        0,
        0.00099999975372412,
        7.665159428420581e-7,
        0,
        0,
        -7.665159428420581e-7,
        0.00099999975372412,
        0,
        0,
        0,
        0,
        1
      ],
      "name": "Level6_v3",
      "extras": {
        "name": "Level6 v3"
      },
      "children": [
        2,
        3,
        4,
        5
      ]
    },
    {
      "matrix": [
        10,
        0,
        0,
        0,
        0,
        10,
        0,
        0,
        0,
        0,
        10,
        0,
        0,
        0,
        0,
        1
      ],
      "name": "lvl6.glb",
      "children": [
        1,
        6
      ]
    }
  ],
  "bufferViews": [
    {
      "buffer": 0,
      "byteOffset": 0,
      "byteLength": 2076,
      "target": 34962,
      "byteStride": 12
    },
    {
      "buffer": 0,
      "byteOffset": 2076,
      "byteLength": 2076,
      "target": 34962,
      "byteStride": 12
    },
    {
      "buffer": 0,
      "byteOffset": 4152,
      "byteLength": 1384,
      "target": 34962,
      "byteStride": 8
    },
    {
      "buffer": 0,
      "byteOffset": 5536,
      "byteLength": 876,
      "target": 34963
    },
    {
      "buffer": 0,
      "byteOffset": 6412,
      "byteLength": 360,
      "target": 34962,
      "byteStride": 12
    },
    {
      "buffer": 0,
      "byteOffset": 6772,
      "byteLength": 360,
      "target": 34962,
      "byteStride": 12
    },
    {
      "buffer": 0,
      "byteOffset": 7132,
      "byteLength": 240,
      "target": 34962,
      "byteStride": 8
    },
    {
      "buffer": 0,
      "byteOffset": 7372,
      "byteLength": 144,
      "target": 34963
    },
    {
      "buffer": 0,
      "byteOffset": 7516,
      "byteLength": 360,
      "target": 34962,
      "byteStride": 12
    },
    {
      "buffer": 0,
      "byteOffset": 7876,
      "byteLength": 360,
      "target": 34962,
      "byteStride": 12
    },
    {
      "buffer": 0,
      "byteOffset": 8236,
      "byteLength": 240,
      "target": 34962,
      "byteStride": 8
    },
    {
      "buffer": 0,
      "byteOffset": 8476,
      "byteLength": 360,
      "target": 34962,
      "byteStride": 12
    },
    {
      "buffer": 0,
      "byteOffset": 8836,
      "byteLength": 360,
      "target": 34962,
      "byteStride": 12
    },
    {
      "buffer": 0,
      "byteOffset": 9196,
      "byteLength": 240,
      "target": 34962,
      "byteStride": 8
    },
    {
      "buffer": 0,
      "byteOffset": 9436,
      "byteLength": 360,
      "target": 34962,
      "byteStride": 12
    },
    {
      "buffer": 0,
      "byteOffset": 9796,
      "byteLength": 360,
      "target": 34962,
      "byteStride": 12
    },
    {
      "buffer": 0,
      "byteOffset": 10156,
      "byteLength": 240,
      "target": 34962,
      "byteStride": 8
    },
    {
      "buffer": 0,
      "byteOffset": 10396,
      "byteLength": 144,
      "target": 34963
    }
  ],
  "buffers": [
    {
      "byteLength": 10540,
      "uri": "data:application/octet-stream;base64,"
    }
  ],
  "accessors": [
    {
      "bufferView": 0,
      "componentType": 5126,
      "count": 173,
      "max": [
        136.49623107910156,
        53.51712417602539,
        91.86643981933594
      ],
      "min": [
        -353.5037536621094,
        -46.98287582397461,
        -303.133544921875
      ],
      "type": "VEC3"
    },
    {
      "bufferView": 1,
      "componentType": 5126,
      "count": 173,
      "max": [
        1,
        1,
        1
      ],
      "min": [
        -1,
        -1,
        -1
      ],
      "type": "VEC3"
    },
    {
      "bufferView": 2,
      "componentType": 5126,
      "count": 173,
      "max": [
        540,
        166
      ],
      "min": [
        -539.5,
        -489
      ],
      "type": "VEC2"
    },
    {
      "bufferView": 3,
      "componentType": 5123,
      "count": 438,
      "max": [
        172
      ],
      "min": [
        0
      ],
      "type": "SCALAR"
    },
    {
      "bufferView": 4,
      "componentType": 5126,
      "count": 30,
      "max": [
        150,
        99.5,
        80
      ],
      "min": [
        60,
        0.5,
        -20
      ],
      "type": "VEC3"
    },
    {
      "bufferView": 5,
      "componentType": 5126,
      "count": 30,
      "max": [
        1,
        1,
        1
      ],
      "min": [
        -1,
        -1,
        -1
      ],
      "type": "VEC3"
    },
    {
      "bufferView": 6,
      "componentType": 5126,
      "count": 30,
      "max": [
        100,
        51
      ],
      "min": [
        -45,
        -98
      ],
      "type": "VEC2"
    },
    {
      "bufferView": 7,
      "componentType": 5123,
      "count": 72,
      "max": [
        29
      ],
      "min": [
        0
      ],
      "type": "SCALAR"
    },
    {
      "bufferView": 8,
      "componentType": 5126,
      "count": 30,
      "max": [
        -5,
        99.5,
        80
      ],
      "min": [
        -95,
        0.5,
        -20
      ],
      "type": "VEC3"
    },
    {
      "bufferView": 9,
      "componentType": 5126,
      "count": 30,
      "max": [
        1,
        1,
        1
      ],
      "min": [
        -1,
        -1,
        -1
      ],
      "type": "VEC3"
    },
    {
      "bufferView": 10,
      "componentType": 5126,
      "count": 30,
      "max": [
        100,
        51
      ],
      "min": [
        -45,
        -98
      ],
      "type": "VEC2"
    },
    {
      "bufferView": 11,
      "componentType": 5126,
      "count": 30,
      "max": [
        -150,
        99.5,
        80
      ],
      "min": [
        -240,
        0.5,
        -20
      ],
      "type": "VEC3"
    },
    {
      "bufferView": 12,
      "componentType": 5126,
      "count": 30,
      "max": [
        1,
        1,
        1
      ],
      "min": [
        -1,
        -1,
        -1
      ],
      "type": "VEC3"
    },
    {
      "bufferView": 13,
      "componentType": 5126,
      "count": 30,
      "max": [
        100,
        51
      ],
      "min": [
        -45,
        -98
      ],
      "type": "VEC2"
    },
    {
      "bufferView": 14,
      "componentType": 5126,
      "count": 30,
      "max": [
        157.5,
        0.800000011920929,
        232.5
      ],
      "min": [
        101.54466247558594,
        0.5,
        209.5
      ],
      "type": "VEC3"
    },
    {
      "bufferView": 15,
      "componentType": 5126,
      "count": 30,
      "max": [
        1,
        1,
        1
      ],
      "min": [
        -1,
        -1,
        -1
      ],
      "type": "VEC3"
    },
    {
      "bufferView": 16,
      "componentType": 5126,
      "count": 30,
      "max": [
        55.95534133911133,
        12.5
      ],
      "min": [
        -27.977670669555664,
        -10.5
      ],
      "type": "VEC2"
    },
    {
      "bufferView": 17,
      "componentType": 5123,
      "count": 72,
      "max": [
        29
      ],
      "min": [
        0
      ],
      "type": "SCALAR"
    }
  ],
  "materials": [
    {
      "pbrMetallicRoughness": {
        "baseColorFactor": [
          0.6274510025978088,
          0.6274510025978088,
          0.6274510025978088,
          1
        ],
        "metallicFactor": 1,
        "roughnessFactor": 0.5527864098548889
      },
      "doubleSided": true,
      "name": "Steel - Satin.004",
      "extensions": {
        "KHR_materials_ior": {
          "ior": 1.4500000476837158
        },
        "KHR_materials_specular": {
          "specularFactor": 1,
          "specularColorFactor": [
            2.371357614441398,
            2.371357614441398,
            2.371357614441398
          ]
        }
      }
    }
  ],
  "meshes": [
    {
      "primitives": [
        {
          "mode": 4,
          "attributes": {
            "POSITION": 0,
            "NORMAL": 1,
            "TEXCOORD_0": 2
          },
          "indices": 3,
          "material": 0
        }
      ]
    },
    {
      "primitives": [
        {
          "mode": 4,
          "attributes": {
            "POSITION": 4,
            "NORMAL": 5,
            "TEXCOORD_0": 6
          },
          "indices": 7,
          "material": 0
        }
      ]
    },
    {
      "primitives": [
        {
          "mode": 4,
          "attributes": {
            "POSITION": 8,
            "NORMAL": 9,
            "TEXCOORD_0": 10
          },
          "indices": 7,
          "material": 0
        }
      ]
    },
    {
      "primitives": [
        {
          "mode": 4,
          "attributes": {
            "POSITION": 11,
            "NORMAL": 12,
            "TEXCOORD_0": 13
          },
          "indices": 7,
          "material": 0
        }
      ]
    },
    {
      "primitives": [
        {
          "mode": 4,
          "attributes": {
            "POSITION": 14,
            "NORMAL": 15,
            "TEXCOORD_0": 16
          },
          "indices": 17,
          "material": 0
        }
      ]
    }
  ],
  "extensionsUsed": [
    "KHR_materials_ior",
    "KHR_materials_specular"
  ]
}