{
  "asset": {
    "version": "2.0",
    "generator": "THREE.GLTFExporter"
  },
  "scenes": [
    {
      "name": "Scene",
      "nodes": [
        0,
        1,
        4
      ]
    }
  ],
  "scene": 0,
  "nodes": [
    {
      "matrix": [
        1,
        0,
        0,
        0,
        0,
        1,
        0,
        0,
        0,
        0,
        1,
        0,
        13.035331631151568,
        13.209267818757107,
        -11.874311959189136,
        1
      ],
      "name": "DirectionalLight",
      "extensions": {
        "KHR_lights_punctual": {
          "light": 0
        }
      }
    },
    {
      "name": "TestBox_v1",
      "extras": {
        "originalName": "TestBox v1",
        "transformData": {
          "eulerOrder": "ZYX",
          "parentMatrix": {
            "elements": [
              1,
              0,
              0,
              0,
              0,
              1,
              0,
              0,
              0,
              0,
              1,
              0,
              0,
              0,
              0,
              1
            ]
          },
          "parentMatrixWorld": {
            "elements": [
              1,
              0,
              0,
              0,
              0,
              1,
              0,
              0,
              0,
              0,
              1,
              0,
              0,
              0,
              0,
              1
            ]
          }
        }
      }
    },
    {
      "matrix": [
        0.010000000707805157,
        0,
        0,
        0,
        0,
        0.010000000707805157,
        0,
        0,
        0,
        0,
        0.010000000707805157,
        0,
        -0.0002647055662237108,
        0.03160911798477173,
        0.008402714505791664,
        1
      ],
      "name": "Body2",
      "extras": {
        "name": "Body2"
      },
      "mesh": 0
    },
    {
      "matrix": [
        0.0010000000474974513,
        0,
        0,
        0,
        0,
        -1.3435886286675388e-10,
        0.001000000181856314,
        0,
        0,
        -0.001000000181856314,
        -1.3435886286675388e-10,
        0,
        0,
        0,
        0,
        1
      ],
      "name": "TestBox_v1",
      "extras": {
        "name": "TestBox v1"
      }
    },
    {
      "matrix": [
        10,
        0,
        0,
        0,
        0,
        10,
        0,
        0,
        0,
        0,
        10,
        0,
        0,
        0,
        0,
        1
      ],
      "name": "testbox.gltf",
      "children": [
        2,
        3
      ]
    }
  ],
  "extensions": {
    "KHR_lights_punctual": {
      "lights": [
        {
          "name": "DirectionalLight",
          "color": [
            1,
            1,
            1
          ],
          "intensity": 1,
          "type": "directional"
        }
      ]
    }
  },
  "bufferViews": [
    {
      "buffer": 0,
      "byteOffset": 0,
      "byteLength": 696,
      "target": 34962,
      "byteStride": 12
    },
    {
      "buffer": 0,
      "byteOffset": 696,
      "byteLength": 696,
      "target": 34962,
      "byteStride": 12
    },
    {
      "buffer": 0,
      "byteOffset": 1392,
      "byteLength": 464,
      "target": 34962,
      "byteStride": 8
    },
    {
      "buffer": 0,
      "byteOffset": 1856,
      "byteLength": 288,
      "target": 34963
    }
  ],
  "buffers": [
    {
      "byteLength": 2144,
      "uri": "data:application/octet-stream;base64,"
    }
  ],
  "accessors": [
    {
      "bufferView": 0,
      "componentType": 5126,
      "count": 58,
      "max": [
        100,
        90,
        100
      ],
      "min": [
        -100,
        0,
        -100
      ],
      "type": "VEC3"
    },
    {
      "bufferView": 1,
      "componentType": 5126,
      "count": 58,
      "max": [
        1,
        1,
        1
      ],
      "min": [
        -1,
        -1,
        -1
      ],
      "type": "VEC3"
    },
    {
      "bufferView": 2,
      "componentType": 5126,
      "count": 58,
      "max": [
        100,
        101
      ],
      "min": [
        -196,
        -99
      ],
      "type": "VEC2"
    },
    {
      "bufferView": 3,
      "componentType": 5123,
      "count": 144,
      "max": [
        57
      ],
      "min": [
        0
      ],
      "type": "SCALAR"
    }
  ],
  "materials": [
    {
      "pbrMetallicRoughness": {
        "baseColorFactor": [
          0.6274510025978088,
          0.6274510025978088,
          0.6274510025978088,
          1
        ],
        "metallicFactor": 1,
        "roughnessFactor": 0.5527864098548889
      },
      "doubleSided": true,
      "name": "Steel - Satin",
      "extensions": {
        "KHR_materials_ior": {
          "ior": 1.4500000476837158
        },
        "KHR_materials_specular": {
          "specularFactor": 1,
          "specularColorFactor": [
            2.371357614441398,
            2.371357614441398,
            2.371357614441398
          ]
        }
      }
    }
  ],
  "meshes": [
    {
      "primitives": [
        {
          "mode": 4,
          "attributes": {
            "POSITION": 0,
            "NORMAL": 1,
            "TEXCOORD_0": 2
          },
          "indices": 3,
          "material": 0
        }
      ]
    }
  ],
  "extensionsUsed": [
    "KHR_lights_punctual",
    "KHR_materials_ior",
    "KHR_materials_specular"
  ]
}